<mxfile host="65bd71144e">
    <diagram id="sFuRNi9uI5nksTlDpZG2" name="Page-1">
        <mxGraphModel dx="367" dy="386" grid="1" gridSize="10" guides="1" tooltips="1" connect="1" arrows="1" fold="1" page="1" pageScale="1" pageWidth="827" pageHeight="1169" math="0" shadow="0">
            <root>
                <mxCell id="0"/>
                <mxCell id="1" parent="0"/>
                <mxCell id="2" value="SUM QNS" style="text;html=1;align=center;verticalAlign=middle;resizable=0;points=[];autosize=1;strokeColor=none;fillColor=none;" vertex="1" parent="1">
                    <mxGeometry x="334" y="30" width="80" height="30" as="geometry"/>
                </mxCell>
                <mxCell id="3" value="sum of 2 elements&lt;br&gt;(2 sum)" style="text;html=1;align=center;verticalAlign=middle;resizable=0;points=[];autosize=1;strokeColor=none;fillColor=none;" vertex="1" parent="1">
                    <mxGeometry x="35" y="150" width="120" height="40" as="geometry"/>
                </mxCell>
                <mxCell id="4" value="sum of 3 elements&lt;br&gt;(3 sum)" style="text;html=1;align=center;verticalAlign=middle;resizable=0;points=[];autosize=1;strokeColor=none;fillColor=none;" vertex="1" parent="1">
                    <mxGeometry x="35" y="270" width="120" height="40" as="geometry"/>
                </mxCell>
                <mxCell id="5" value="sum of subarray&lt;br&gt;" style="text;html=1;align=center;verticalAlign=middle;resizable=0;points=[];autosize=1;strokeColor=none;fillColor=none;" vertex="1" parent="1">
                    <mxGeometry x="280" y="150" width="110" height="30" as="geometry"/>
                </mxCell>
                <mxCell id="6" value="sum of subsequence" style="text;html=1;align=center;verticalAlign=middle;resizable=0;points=[];autosize=1;strokeColor=none;fillColor=none;" vertex="1" parent="1">
                    <mxGeometry x="420" y="150" width="130" height="30" as="geometry"/>
                </mxCell>
                <mxCell id="9" value="" style="shape=stencil(fZbdcgIhDIWfZm8zQAg/17Z9j85U606tdqz9e/tmZ0c0uJ47xP0I5JwEBl59bp8/1kNwn6fj4W39M76ctgM/DCGM++36OJ50NPDjwKvN4bh+PR6+9i/z74/n6ctp9H74nlb4nbmSKZeJCu5vngmZ6jzzNAO7cX8FVKEsBuBKrgKg9oAE8gkCbLeUhEoEQKSUDZDLeWYRKIl8MEDRmHwfyBrBG6Amyu4+kDxxMoB3jhwgYu7TVAsVkFcWCs4CTBEoF4RctKeOxHIf8IXYpikHikAIf+MNUW94AGSSaoAoFIE3AlOyeWU+p2E5S9yfQZcQILVuQOwZdJNoS9Ls3wA5u2XZTIHECqeJ9kDpSaauRiNVcAY1QhdBzeLBli5WazpkSsBLV25uRaqWRyFawTQzRRIQYirJzq5atkBqLfouwqUxLBepthWb10vrWZY6UOAeyKCCtDV625mm9gmUC4Wc3VLJMMIE1BsA2FW9JraVlQB7n3c9oMKhCLEvIM1zBPZ25/umNQ1tVEC2G+fFCC8g398O2hNQuQlVu752DBfA+q0ptnqO5JFmeuIuo9DY7KjY71UxdJV4EntifPWorW++R/dC4t7V3DlIB5cHx2bc7eb3yvX//QNFp+bHDT/+Aw==);lineShape=1;" vertex="1" parent="1">
                    <mxGeometry x="323.00970856350034" y="49.44611484244274" width="2.525697174116455" height="2.5217493061392964" as="geometry"/>
                </mxCell>
                <mxCell id="11" value="" style="shape=stencil(7VlJchsxDHyNrigSALdz4vzDVXFiVRzbZTvb78OJitIQ8LSimw++aWnMkECjARI7+fB8e/14s+Pw/PL08O3m1/7zy+1OPu6Y9/e3N0/7l/5pJ1c7+fDl4enm69PDj/vPh++P1wty+fT94efyhN8Hu9ao5MWKw5/DL5E0/fvh0wF/t79f47PFC1UB+P53m/CZFOBrozbjY6BYgEGiYDag1IBBaRTSZMCBqgIDpqCzQaEMfJSVeH6DJLiHlOymVSiCN2hfwGyQIsW8bSCNapwNKpUKDJhSneOWRuRfNehxDbPB4rcGDAJpmQ36ruK2QUx2D5WJwRsiW2rUTBEYNIoy4xtJAIGmOj+/RSqA3J0F8wZ6diSA77nDM15hsvH494jvMUMhsCHr2Z0A7TrHwowvlACvA+Vi8RXiU7L4xgivchleolsP2G8gdvgClKIrFV/mn+D2Kxjv1hPheoKJV6YG+NzxbPEZ5Hyw+dXxiv0jFs8Qz249SFJ6fB3/GxC5MPRmlV8Z5FckNs+XkdEb+GL8H4dibOBtvkcSJHDUxOJRnXF62PEB8IEd/wPkD5Nki0f53muMfz7IXx5ld71+wB8eJW6FZ/j8WixeUc2jphaP9IFHY3LE85n1e7wAvWLHB4aNCg/1W+Gx/8XghRqsF9Y/CfItOv3Pg4Fb63HPL4Bv4vQ/wwaiV1tX7wLQk+T0sxCjvo/Y11OwnuTWX0dF2MJni1e4fmGLb4D/yelzg3qVXL3rpw/AN3X9TBuM2sDn2Z8xBEg4dQ7qLwAO1dFkr/AZBFhdAW4jhBsEbcEGAAlobxCrxaMAiEvIMiRja/2ugUswYJwtHgmuDjquEwwQTgdd1nh0ThrytG6YIEGj84/iBHbrRwU+OQGtI+W28GrxFfA5Of+3cRT9zwNJ5zOMV3P4CgSlJ+Tsn/MJqWpfgBToUrwM+q7wSBGZ1CsirGD2RIIDHMb5779PAOZmoeGbhTDCua7YQEGjSwCGhHjvWN871rfdsVp9EHg5GJ3/E7yujK6DyzBf3m9E3m9E3vaNiG2w0pkbCzMNWOoR1Ntk8lFh/fX1WijDE4C5Ij6jP9nlV4A3oNXWu1oHw1/3T3fQ/IJlXoEvuU2FqRF7tFPI3Lvn0bS8bnC8Ez4ahDGj2RoFsBnhKCU8bDBRSzjrtXfZc1oqbuNSsjdrGmFfk2U8bxiIwDcUF7gzg6tSrUFscJxR1U3eBE4ParNDnwoPq0uqzE5KUBsXqZqfzzA3l9Z5xgd4GOv4VCweMHs5i+TL8CYCAfYqy9lFDB7l8nK0CAaPtHrB2/Wg3ri50WeAabY6S50MUDF+7QWoOTidpY4MhcXmdHlywp9xUFWDF7Dhi2fVZ/H9w2kw/mV/d3eYq6//t4P0/tNhCC9XfwE=);lineShape=1;" vertex="1" parent="1">
                    <mxGeometry x="121.72540175225078" y="49.29328169825823" width="204.28264648913176" height="101.58441952845737" as="geometry"/>
                </mxCell>
                <mxCell id="13" value="sum of 4 elements&lt;br&gt;(4 sum)" style="text;html=1;align=center;verticalAlign=middle;resizable=0;points=[];autosize=1;strokeColor=none;fillColor=none;" vertex="1" parent="1">
                    <mxGeometry x="30" y="390" width="120" height="40" as="geometry"/>
                </mxCell>
                <mxCell id="14" value="" style="shape=stencil(7VnLbhsxDPwaXwlSb53T9D8CxGmMpnHgpK+/L7euHIlaj1OgQA/tzdloVhI5JIfcjb96vr952m4cP78c9h+3X3e3L/cb/27j3O7xfnvYveivjb/e+Ku7/WH74bD//Hh7/PvpZlm5/Pq0/7K84dsRJ8zEvMAcfz8+Yqru54P3R8DD7rED1ErOD+sTuQjWZyp5WC9MqQJAJF9HgO4QAEAojTs4RwXsUFL7dwN4plAAQEjiCCiU+TwgB8qjkUImBndImXIaADESgyMlpuJGNzgKwG8xkIw7pNI8swoIxV5ab4U8HTy58Ui5UAQ7eKXS6Dg1dEWARH7kagmUgJV8IB7voL6vAgCO/HiHop5GO7ANh4WO6TzAVYqjH6q/BGADUGoAervSbNIBEDWchmi0gF/8XQckSt4CKjrS6cQnQCJBAG/9oACP7iAUZAIAx0mlMB3JA3pLbm7qACgvadri6Q4M6C1hxXEFXFo8ZWcBEThOATLt4EA8KMA6LsCskalO7I5gA0cp2PCJyAvJ5r3K8EBazkw50RMFFG8ajmxtlBH1NKWYaMjkLgSoTDuAcqKJcvYCqg6Rpx1cS//rgHkHblV1vf4IFbYAD6iXQssQHQAdScuTTQHc2LtOPU0BYToSAqgRvQVkQL4cJ/IJTAE5TX5Qu4FwUIA3R3KNv+eOxJOnkX7LrtWzLh5Q3kuVygRISMukKYA0TyGAHkCmHRA1eLKSxjQIoKhpqUxWAmaNiSJbQADxoABbpQWKUAVktgBU4WJpbuozHwAsEnGid0Ah6q0uVoADZlXV6sQCBAUQr4UoEtK+xVefl1AAxSlrCCy6GnFhchzcIbUC1edWHKJW8TmcZvyUNU7S+s8AlmRszKodC7h09FOaUf6i7kEoGy4VKE1U5ibbJ55a03Up4Kagrjht2O5B6zSqca6ZpCvTHrx/6qQr7kOV+uONLwSDijE/eq1oBwUKnN7Aalxpyv2cTo8TkQSZ6H9z0loHdIe/1JxgHf3vNSd6B3vpgC8d7Ryn4imLFNvPaIhWoH00CRQDKC0tnCNfHI9UtCAh8qU2buuGJkipLyMNcyTNGoBLPljH5QLJN/czWsGQlUJsbuqGVxGpK7FsTRcaIH3fCIihyaf1YhJtiIYEAdqelGmIGJH2yc2v3ZgS1Ydy0iHdIBSlyhJbDe9GrQIiTrlp5mmC5Ziy304doTDR9clOo+Eot9ob4La1TtxmKOt1fbXvR6291lczC8CCWMurMSi3B+vrgx2ZYo30mnLfuD61Tq1bD8Jmme7b9UgvqAg0c26GlVMVXbD2QTGj64u1D5qs/PbnjzcA9Mfr15a73cPD8WNN/3/7dUYfHb/s+Osf);lineShape=1;" vertex="1" parent="1">
                    <mxGeometry x="349.14276717745054" y="61.18493119933203" width="14.703075681678037" height="84.15116550567302" as="geometry"/>
                </mxCell>
                <mxCell id="16" value="" style="shape=stencil(lVjbThwxDP2afbUSO4mTZ0r/Awkoq1JAQG9/X09XmZ04swfxtgw+cXw/zkGu3h5uXu4OHN7eX5+/3/0+3r4/HOTLgfn49HD3eny3Xwe5PsjV/fPr3bfX559Pt6e/X24WyeXXj+dfywl/TrhIqS4gDn9PHwJJ+P/h60n88fi0EU+U0yCeKMbL4oWaDuL2oV0Wb9R4EI92G7ksH8XfPtp9KgAolfH+sVIGGpiJRwtYiIEGVuLRBq7E6TJAuJvYAWIagJNEKY02CNaQmFIYgyYUGAC0B3UFKPRSjpRHgH3RDACZ8ugl+1JAIuXmr2RfAtBQLHAjwL4go0ui2kZAgkYX85IDFCroSo24jIDa83cXoJHiGGkNFEF1KlMd68GOQFfS1cQVIBQLABSKYz3YEYpsUKpj8tkRCURaG6UxNbR2N+wCaqQwRtqOqAoATDkPgLrm7z5AetdaAVZAwOiafU3X1It2H1CmK+XeqfYBljkOoLBr1EY6xsGOQK2yWfI5DbjiGpOO2dpCT/h9QOptawVYtiJAJh1TowkJ8FJTCmPgTKeiAVR9I2sFTqBmPkkekEGJGiAHD6jIrZbMzmj96EouWw3Q8JXa2DUWN2CAOg3mBhS45kfW4gZkQ/XEYXED8lL1GmIIFJAR6nvl4gekwtw+3UnBRLHAtuIBggFlCkQFjWnJNfUA/kDDWNRmVUGBKH4qnmvqkpfY2WA6QTc2gE6AhAJXfXNdahQZXfs42GrAFSTFA2CkLRHEewmN0XOqbQAKIr3J5k2oEVNvbbK69oy/2Jmm/BYU6ubpyeIHZHWlwh7QUG5UCtOV4ALxaUCebLC+gHJDdtKVkQ3s+YzNoIy8FD1zNZ0R8Zk2uRXP0fPk30zqjDSU3oY2XECQhkTNESDbWhBAPHmoBRs9udV0ogpaaKK7krkVFLWxSMcF7AhE4ozqun6vK+m6RKaTY64Ks9W4touDHSGITIvvxnZEwSuHo4nLQoBsCL7iNMKlxnYeHltfwV3DtioeI22bV0UA8c8IJffs2gfESYPAMZqr30ZLgCt4nvasXOBkz2FakJkaWvJLT+Z1Z699KO0D4vQqkHrj2X93KNO7Q4P1ILHn5gpIMDXYIj1eiRsc1DwFjhNsM3EiTLHhuct9BK4A2+0AS6yeGkfzMyjp7Nfj2teufZ96l2a4YgU/SiIk9sGvSxESq9AfVM7i6DFwYjChc8tL4uLEUedaX0bO4gnMj+AzJ8D1OXjuH2CYgl/nA1ydQ38s24jDMLXPiE+LPL5M9PQ6QCr7yQfkD8Xtx/mt+v74+Hh66t7+379t26fTu7hc/wM=);lineShape=1;" vertex="1" parent="1">
                    <mxGeometry x="405.0188866697872" y="58.483349629534985" width="90.80884413550933" height="84.45386428047911" as="geometry"/>
                </mxCell>
                <mxCell id="17" value="" style="shape=stencil(lVfLctswDPwaXTEkARLkOU3/IzNxak/dOOM4ffx9oaqUTdjeTm+KgqWBxS5ATfzwvn1620wpvJ+Oh6+bH7vn03biT1NKu9ft5rg72dPEjxM/vByOmy/Hw8fr8/L329McOT99O3yfT/i54EqmlmZUCr+WN40q/3nxeYnf714v44uPj41CA4BGWQYAJ4oAoIVSGQCS+hE3ATUT5wGQmTKooXFPoAOKEKf7gBgChTAgaqAMEM1SHnNqRnQGRQRKrg9GXAC8CrWRpossbyKk9gMvfuIv1TcBnCnUEaCUQeuikKivuoCUTGsuIyEFrbbTRi0ZzwwqSCQjqbWSgnwCyVhwFYrgfCN8PF+NUXB+7FZZ4014oF7T8cinBorgfPUimu0aQT7RE2rzICInFOIxo1mHICOjqF2llICGklB1gEYRuNmKdjUoY0DrHK4ApVohIIxmrokqkp2SjH2u2jt5r+jsnBah+43Wwt45CcwXa1y4GkhoSJo0OHlAAloypTlvMjGI5+7cNd7cBLxgQhqVZ3MfzYpbIxs1zQb6mI9m6J3UJ9saH0lAfO4+WXWtcNNGs3r03syoxTY7r9ZaRdPofwFsRlBfgwBAjr7JZmYkijkBZ2ZbjMA5um6kizYoMLNNXBlprYUKoLXUnvHF0FYgpBL6gFuLxhcYu664NZIDlIaobxxX6B0pvnEmd8SSmLfGom0eCOiDAdzYrnAvWEbZqZsEVaDd7OutEE4jaf24teK+ue4p1eUT4WXKelbHARzg5s9Xt1p8WcuVirp4AYu5XO3ZCPks6wY789PQNV660c/8w/js+Vd4xb75HYLy/+d3iz2cP3pedvv98s10+X//kWSvlg8sfvwN);lineShape=1;" vertex="1" parent="1">
                    <mxGeometry x="485.33864631569145" y="132.13793024467617" width="11.450413515663918" height="10.883609502747325" as="geometry"/>
                </mxCell>
                <mxCell id="21" value="&lt;div style=&quot;border-color: rgb(0, 0, 0); color: rgb(204, 204, 204); font-family: Menlo, Monaco, &amp;quot;Courier New&amp;quot;, monospace; font-size: 11.04px; font-style: normal; font-variant-ligatures: normal; font-variant-caps: normal; font-weight: 400; letter-spacing: normal; orphans: 2; text-align: left; text-indent: 0px; text-transform: none; widows: 2; word-spacing: 0px; -webkit-text-stroke-width: 0px; text-decoration-thickness: initial; text-decoration-style: initial; text-decoration-color: initial;&quot;&gt;Maximum sum subarray&lt;/div&gt;&lt;div style=&quot;border-color: rgb(0, 0, 0); color: rgb(204, 204, 204); font-family: Menlo, Monaco, &amp;quot;Courier New&amp;quot;, monospace; font-size: 11.04px; font-style: normal; font-variant-ligatures: normal; font-variant-caps: normal; font-weight: 400; letter-spacing: normal; orphans: 2; text-align: left; text-indent: 0px; text-transform: none; widows: 2; word-spacing: 0px; -webkit-text-stroke-width: 0px; text-decoration-thickness: initial; text-decoration-style: initial; text-decoration-color: initial;&quot;&gt;&lt;br&gt;&lt;/div&gt;&lt;div style=&quot;border-color: rgb(0, 0, 0); color: rgb(204, 204, 204); font-family: Menlo, Monaco, &amp;quot;Courier New&amp;quot;, monospace; font-size: 11.04px; font-style: normal; font-variant-ligatures: normal; font-variant-caps: normal; font-weight: 400; letter-spacing: normal; orphans: 2; text-align: left; text-indent: 0px; text-transform: none; widows: 2; word-spacing: 0px; -webkit-text-stroke-width: 0px; text-decoration-thickness: initial; text-decoration-style: initial; text-decoration-color: initial;&quot;&gt;//! Kadanes Algo&lt;/div&gt;&lt;div style=&quot;border-color: rgb(0, 0, 0); color: rgb(204, 204, 204); font-family: Menlo, Monaco, &amp;quot;Courier New&amp;quot;, monospace; font-size: 11.04px; font-style: normal; font-variant-ligatures: normal; font-variant-caps: normal; font-weight: 400; letter-spacing: normal; orphans: 2; text-align: left; text-indent: 0px; text-transform: none; widows: 2; word-spacing: 0px; -webkit-text-stroke-width: 0px; text-decoration-thickness: initial; text-decoration-style: initial; text-decoration-color: initial;&quot;&gt;&lt;span style=&quot;border-color: rgb(0, 0, 0); color: rgb(197, 134, 192);&quot;&gt;int curr_sum = 0;&lt;/span&gt;&lt;/div&gt;&lt;div style=&quot;border-color: rgb(0, 0, 0); color: rgb(204, 204, 204); font-family: Menlo, Monaco, &amp;quot;Courier New&amp;quot;, monospace; font-size: 11.04px; font-style: normal; font-variant-ligatures: normal; font-variant-caps: normal; font-weight: 400; letter-spacing: normal; orphans: 2; text-align: left; text-indent: 0px; text-transform: none; widows: 2; word-spacing: 0px; -webkit-text-stroke-width: 0px; text-decoration-thickness: initial; text-decoration-style: initial; text-decoration-color: initial;&quot;&gt;&lt;span style=&quot;border-color: rgb(0, 0, 0); color: rgb(197, 134, 192);&quot;&gt;int maxi_sum = 0;&lt;/span&gt;&lt;/div&gt;&lt;div style=&quot;border-color: rgb(0, 0, 0); color: rgb(204, 204, 204); font-family: Menlo, Monaco, &amp;quot;Courier New&amp;quot;, monospace; font-size: 11.04px; font-style: normal; font-variant-ligatures: normal; font-variant-caps: normal; font-weight: 400; letter-spacing: normal; orphans: 2; text-align: left; text-indent: 0px; text-transform: none; widows: 2; word-spacing: 0px; -webkit-text-stroke-width: 0px; text-decoration-thickness: initial; text-decoration-style: initial; text-decoration-color: initial;&quot;&gt;&lt;span style=&quot;border-color: rgb(0, 0, 0); color: rgb(197, 134, 192);&quot;&gt;for&lt;/span&gt;&lt;span style=&quot;border-color: rgb(0, 0, 0); color: rgb(204, 204, 204);&quot;&gt;(&lt;/span&gt;&lt;span style=&quot;border-color: rgb(0, 0, 0); color: rgb(86, 156, 214);&quot;&gt;int&lt;/span&gt;&lt;span style=&quot;border-color: rgb(0, 0, 0); color: rgb(204, 204, 204);&quot;&gt;&lt;span&gt;&amp;nbsp;&lt;/span&gt;i&lt;/span&gt;&lt;span style=&quot;border-color: rgb(0, 0, 0); color: rgb(212, 212, 212);&quot;&gt;=&lt;/span&gt;&lt;span style=&quot;border-color: rgb(0, 0, 0); color: rgb(181, 206, 168);&quot;&gt;0&lt;/span&gt;&lt;span style=&quot;border-color: rgb(0, 0, 0); color: rgb(204, 204, 204);&quot;&gt;;i&lt;/span&gt;&lt;span style=&quot;border-color: rgb(0, 0, 0); color: rgb(212, 212, 212);&quot;&gt;&amp;lt;&lt;/span&gt;&lt;span style=&quot;border-color: rgb(0, 0, 0); color: rgb(204, 204, 204);&quot;&gt;n;i&lt;/span&gt;&lt;span style=&quot;border-color: rgb(0, 0, 0); color: rgb(212, 212, 212);&quot;&gt;++&lt;/span&gt;&lt;span style=&quot;border-color: rgb(0, 0, 0); color: rgb(204, 204, 204);&quot;&gt;){&lt;/span&gt;&lt;/div&gt;&lt;div style=&quot;border-color: rgb(0, 0, 0); color: rgb(204, 204, 204); font-family: Menlo, Monaco, &amp;quot;Courier New&amp;quot;, monospace; font-size: 11.04px; font-style: normal; font-variant-ligatures: normal; font-variant-caps: normal; font-weight: 400; letter-spacing: normal; orphans: 2; text-align: left; text-indent: 0px; text-transform: none; widows: 2; word-spacing: 0px; -webkit-text-stroke-width: 0px; text-decoration-thickness: initial; text-decoration-style: initial; text-decoration-color: initial;&quot;&gt;&lt;span style=&quot;border-color: rgb(0, 0, 0); color: rgb(204, 204, 204);&quot;&gt;&lt;/span&gt;&lt;/div&gt;&lt;div style=&quot;border-color: rgb(0, 0, 0); color: rgb(204, 204, 204); font-family: Menlo, Monaco, &amp;quot;Courier New&amp;quot;, monospace; font-size: 11.04px; font-style: normal; font-variant-ligatures: normal; font-variant-caps: normal; font-weight: 400; letter-spacing: normal; orphans: 2; text-align: left; text-indent: 0px; text-transform: none; widows: 2; word-spacing: 0px; -webkit-text-stroke-width: 0px; text-decoration-thickness: initial; text-decoration-style: initial; text-decoration-color: initial;&quot;&gt;&lt;span style=&quot;border-color: rgb(0, 0, 0); color: rgb(204, 204, 204);&quot;&gt;curr_sum&lt;/span&gt;&lt;span style=&quot;border-color: rgb(0, 0, 0); color: rgb(212, 212, 212);&quot;&gt;=&lt;/span&gt;&lt;span style=&quot;border-color: rgb(0, 0, 0); color: rgb(220, 220, 170);&quot;&gt;max&lt;/span&gt;&lt;span style=&quot;border-color: rgb(0, 0, 0); color: rgb(204, 204, 204);&quot;&gt;(curr_sum&lt;/span&gt;&lt;span style=&quot;border-color: rgb(0, 0, 0); color: rgb(212, 212, 212);&quot;&gt;+&lt;/span&gt;&lt;span style=&quot;border-color: rgb(0, 0, 0); color: rgb(156, 220, 254);&quot;&gt;arr&lt;/span&gt;&lt;span style=&quot;border-color: rgb(0, 0, 0); color: rgb(204, 204, 204);&quot;&gt;[i],&lt;span&gt;&amp;nbsp;&lt;/span&gt;&lt;/span&gt;&lt;span style=&quot;border-color: rgb(0, 0, 0); color: rgb(156, 220, 254);&quot;&gt;arr&lt;/span&gt;&lt;span style=&quot;border-color: rgb(0, 0, 0); color: rgb(204, 204, 204);&quot;&gt;[i]);&lt;/span&gt;&lt;span style=&quot;border-color: rgb(0, 0, 0); color: rgb(106, 153, 85);&quot;&gt;&amp;nbsp;// include in existing or start new&lt;/span&gt;&lt;/div&gt;&lt;div style=&quot;border-color: rgb(0, 0, 0); color: rgb(204, 204, 204); font-family: Menlo, Monaco, &amp;quot;Courier New&amp;quot;, monospace; font-size: 11.04px; font-style: normal; font-variant-ligatures: normal; font-variant-caps: normal; font-weight: 400; letter-spacing: normal; orphans: 2; text-align: left; text-indent: 0px; text-transform: none; widows: 2; word-spacing: 0px; -webkit-text-stroke-width: 0px; text-decoration-thickness: initial; text-decoration-style: initial; text-decoration-color: initial;&quot;&gt;&lt;span style=&quot;border-color: rgb(0, 0, 0); color: rgb(204, 204, 204);&quot;&gt;maxi&lt;/span&gt;&lt;span style=&quot;border-color: rgb(0, 0, 0); color: rgb(212, 212, 212);&quot;&gt;=&lt;/span&gt;&lt;span style=&quot;border-color: rgb(0, 0, 0); color: rgb(220, 220, 170);&quot;&gt;max&lt;/span&gt;&lt;span style=&quot;border-color: rgb(0, 0, 0); color: rgb(204, 204, 204);&quot;&gt;(maxi,curr_sum);&lt;/span&gt;&lt;span style=&quot;border-color: rgb(0, 0, 0); color: rgb(106, 153, 85);&quot;&gt;&lt;span&gt;&amp;nbsp;&lt;/span&gt;//maxm sum jaha se bhi aara ho usko uthalo&lt;/span&gt;&lt;/div&gt;&lt;div style=&quot;border-color: rgb(0, 0, 0); color: rgb(204, 204, 204); font-family: Menlo, Monaco, &amp;quot;Courier New&amp;quot;, monospace; font-size: 11.04px; font-style: normal; font-variant-ligatures: normal; font-variant-caps: normal; font-weight: 400; letter-spacing: normal; orphans: 2; text-align: left; text-indent: 0px; text-transform: none; widows: 2; word-spacing: 0px; -webkit-text-stroke-width: 0px; text-decoration-thickness: initial; text-decoration-style: initial; text-decoration-color: initial;&quot;&gt;&lt;span style=&quot;border-color: rgb(0, 0, 0); color: rgb(204, 204, 204);&quot;&gt;}&lt;/span&gt;&lt;/div&gt;&lt;div style=&quot;border-color: rgb(0, 0, 0); color: rgb(204, 204, 204); font-family: Menlo, Monaco, &amp;quot;Courier New&amp;quot;, monospace; font-size: 11.04px; font-style: normal; font-variant-ligatures: normal; font-variant-caps: normal; font-weight: 400; letter-spacing: normal; orphans: 2; text-align: left; text-indent: 0px; text-transform: none; widows: 2; word-spacing: 0px; -webkit-text-stroke-width: 0px; text-decoration-thickness: initial; text-decoration-style: initial; text-decoration-color: initial;&quot;&gt;&lt;span style=&quot;border-color: rgb(0, 0, 0); color: rgb(204, 204, 204);&quot;&gt;return maxi&lt;/span&gt;&lt;/div&gt;" style="text;whiteSpace=wrap;html=1;fontSize=8;" vertex="1" parent="1">
                    <mxGeometry x="210" y="420" width="510" height="140" as="geometry"/>
                </mxCell>
                <mxCell id="23" value="&lt;font style=&quot;font-size: 12px;&quot;&gt;Sum of Subarray == k&lt;/font&gt;" style="text;html=1;align=center;verticalAlign=middle;resizable=0;points=[];autosize=1;strokeColor=none;fillColor=none;fontSize=8;" vertex="1" parent="1">
                    <mxGeometry x="210" y="240" width="140" height="30" as="geometry"/>
                </mxCell>
            </root>
        </mxGraphModel>
    </diagram>
</mxfile>